<svg xmlns="http://www.w3.org/2000/svg" viewBox="0 0 512 512" width="512" height="512">
  <rect width="512" height="512" rx="112" fill="#1f9d55"/>
  <g transform="translate(146 96)">
    <path d="M20 0 h180 a20 20 0 0 1 20 20 v300 l-26 -18 -26 18 -26 -18 -26 18 -26 -18 -26 18 -26 -18 -26 18 V20 A20 20 0 0 1 20 0 Z"
          fill="#ffffff"/>
    <g fill="#1f9d55">
      <rect x="40" y="58" width="140" height="20" rx="6"/>
      <rect x="40" y="104" width="140" height="20" rx="6"/>
      <rect x="40" y="150" width="90" height="20" rx="6"/>
      <rect x="40" y="210" width="140" height="22" rx="6" opacity="0.55"/>
    </g>
  </g>
</svg>
